<svg width="16" height="16" viewBox="0 0 16 16" fill="none" xmlns="http://www.w3.org/2000/svg">
<g clip-path="url(#clip0_3_1925)">
<path d="M8.4005 14.5327C9.6405 13.462 13.3332 9.99534 13.3332 6.66668C13.3332 5.25219 12.7713 3.89563 11.7711 2.89544C10.7709 1.89525 9.41433 1.33334 7.99984 1.33334C6.58535 1.33334 5.2288 1.89525 4.2286 2.89544C3.22841 3.89563 2.6665 5.25219 2.6665 6.66668C2.6665 9.99534 6.35917 13.462 7.59917 14.5327C7.71469 14.6195 7.85531 14.6665 7.99984 14.6665C8.14437 14.6665 8.28499 14.6195 8.4005 14.5327Z" stroke="#FFD700" stroke-width="1.33333" stroke-linecap="round" stroke-linejoin="round"/>
<path d="M8 8.66666C9.10457 8.66666 10 7.77123 10 6.66666C10 5.56209 9.10457 4.66666 8 4.66666C6.89543 4.66666 6 5.56209 6 6.66666C6 7.77123 6.89543 8.66666 8 8.66666Z" stroke="#FFD700" stroke-width="1.33333" stroke-linecap="round" stroke-linejoin="round"/>
</g>
<defs>
<clipPath id="clip0_3_1925">
<rect width="16" height="16" fill="white"/>
</clipPath>
</defs>
</svg>
